<?xml version="1.0" encoding="utf-8"?>
<!-- Generator: Adobe Illustrator 26.0.1, SVG Export Plug-In . SVG Version: 6.00 Build 0)  -->
<svg version="1.1" xmlns="http://www.w3.org/2000/svg" xmlns:xlink="http://www.w3.org/1999/xlink" x="0px" y="0px"
	 viewBox="0 0 3000 2000" style="enable-background:new 0 0 3000 2000;" xml:space="preserve">
<style type="text/css">
	.st0{opacity:0.3;}
	.st1{fill:#00B300;}
	.st2{fill:#FFBA9A;}
	.st3{fill:#EBD9F4;}
	.st4{fill:#7700B3;}
	.st5{fill:#FFFFFF;}
	.st6{fill:#013D55;}
	.st7{opacity:0.3;fill:#FF864D;}
	.st8{fill:#B36B00;}
	.st9{fill:#00B3F3;}
	.st10{fill:#BF643A;}
	.st11{fill:#C2AFEA;}
	.st12{fill:#7252B7;}
	.st13{fill:#36295B;}
	.st14{opacity:0.4;fill:#FF9498;}
	.st15{fill:#CCB8D8;}
	.st16{opacity:0.6;fill:#007BA7;}
	.st17{opacity:0.8;fill:#013D55;}
	.st18{fill:#FFFFFF;stroke:#007D00;stroke-miterlimit:10;}
	.st19{fill:#007D00;stroke:#007D00;stroke-miterlimit:10;}
	.st20{fill:#251930;}
	.st21{fill:#BFA564;}
</style>
<g id="BACKGROUND">
</g>
<g id="OBJECTS">
	<g>
		<g class="st0">
			<path class="st1" d="M964.68,1652.67c-28.6-11.08-54.96-24.28-78.44-39.92c-172.38-114.82-206.73-317.49-125.56-482.12
				c90.88-184.34,327.09-299.11,558.67-319.76c240.35-21.43,483.1,47.3,685.19,157.63c113.94,62.21,220.34,140.83,277.27,243.84
				c56.92,103.01,55.03,234.05-31.85,321.41c-135.54,136.27-388.56,150.14-584.68,159.28
				C1437.65,1703.65,1178.12,1735.4,964.68,1652.67z"/>
		</g>
		<g>
			<g>
				<path class="st2" d="M597.81,1184.65c-21.05-6.01-42.37-12.61-63.98-19.88c-10.14-3.41-18.33-11.08-22.66-21.02
					c-12.56-28.84-42.82-86.47-43.53-60.24c-1.34,49.16,17.31,128.27,36.19,177.41c5.35,13.94,15.59,25.41,28.74,32.11
					c24.05,12.26,47.89,23.68,71.53,34.3C610.19,1280.65,609.22,1235.62,597.81,1184.65z"/>
				<path class="st3" d="M1194.62,1392.59c-103.82,34.87-215.08,39.63-332.83,18.06c-82.8-15.18-168.81-43.38-257.71-83.34
					c6.09-46.68,5.13-91.69-6.26-142.66c116.96,33.41,225.42,47.47,325.45,42.63c91.94-4.51,176.82-24.99,254.74-61.15
					L1194.62,1392.59z"/>
			</g>
			<path class="st4" d="M1194.62,1392.59c-103.82,34.87-215.08,39.63-332.83,18.06c27.49-56.56,50.26-121.14,61.49-183.37
				c91.94-4.51,176.82-24.99,254.74-61.15L1194.62,1392.59z"/>
			<g>
				<path class="st5" d="M484.45,1285.28l-89.76,20.35c-15.61,3.54-31.2-5.98-35.19-21.48l-54.71-212.67l152.18-33.54l49.73,211.73
					C510.46,1265.66,500.47,1281.65,484.45,1285.28z"/>
				<path class="st6" d="M253.53,1066.95c26.65-14.83,53.3-29.66,79.95-44.49c-1.9-0.5-3.8-1-5.71-1.5
					c36.44,72.38,72.89,144.76,109.33,217.14c5.15,10.24,10.31,20.47,15.46,30.71c2.41,4.8,9.61,0.58,7.2-4.21
					c-36.44-72.38-72.89-144.76-109.33-217.14c-5.15-10.24-10.31-20.47-15.46-30.71c-1.03-2.04-3.84-2.54-5.71-1.5
					c-26.65,14.83-53.3,29.66-79.95,44.49C244.63,1062.36,248.83,1069.56,253.53,1066.95L253.53,1066.95z"/>
				<path class="st7" d="M468.5,1268.57l-63.42,14.35c-11.03,2.49-21.89-3.54-24.52-13.63l-36.04-138.38l115.28,1.84l24.77,112.29
					C487.04,1255.45,479.82,1266.01,468.5,1268.57z"/>
			</g>
			<g>
				<path class="st2" d="M349.68,1177.55c0.7,9.56-17.58,16.76-26.28,17.4c-8.7,0.64-16.33-6.6-17.03-16.16
					c-0.7-9.56,5.79-17.83,14.49-18.47C329.57,1159.68,348.98,1167.99,349.68,1177.55z"/>
				<path class="st2" d="M360.64,1202.62c2.6,10.22-13.55,20.97-21.8,23.07c-8.26,2.1-17.06-4.47-19.66-14.69
					c-2.6-10.22,1.98-20.21,10.23-22.31S358.04,1192.4,360.64,1202.62z"/>
				<path class="st2" d="M369.79,1233.78c2.6,10.22-13.55,20.97-21.8,23.07c-8.26,2.1-17.06-4.47-19.66-14.69
					c-2.6-10.22,1.98-20.21,10.23-22.31C346.81,1217.74,367.18,1223.56,369.79,1233.78z"/>
			</g>
		</g>
		<g>
			<g>
				<path class="st8" d="M2721.87,1016.34c68.52,59.17,76.1,162.68,16.93,231.2c-2.96,3.43-6.07,6.67-9.25,9.8l-114.82-116.93
					L2721.87,1016.34z"/>
				<path class="st5" d="M2614.73,1140.4l114.82,116.93c-60.24,59.27-156.87,63.34-221.96,7.13
					c-68.52-59.17-76.1-162.68-16.93-231.2c29.36-34,69.64-52.97,111.14-56.25L2614.73,1140.4z"/>
				<path class="st2" d="M2601.8,977.01c42.14-3.33,85.54,9.51,120.07,39.33l-107.14,124.07L2601.8,977.01z"/>
			</g>
			<g>
				<path class="st9" d="M2359.11,1298.02c-71.64,36.65-147.24,67.68-221.7,90.99c-91.57,28.65-181.48,45.67-260.32,47.09
					l-162.16-192.67l-72.04-85.59c29.55,12.9,59.58,23.23,89.82,31.33c106.16,28.65,215.06,30.27,316.32,19.45
					c106.36-11.33,204.3-36.3,281.84-58.04C2327.85,1205.94,2337.73,1254.83,2359.11,1298.02z"/>
				<path class="st2" d="M2552.41,1063.11c-12.32-1.91-49.08,17.66-77.62,34.35c-27.03,15.8-55.57,27.9-85.08,36.33
					c-17.93,5.12-37.63,10.83-58.86,16.78c-3.01,55.37,6.88,104.28,28.26,147.44c50.07-25.62,98.21-53.96,142.66-84.37
					c6.84-14.04,5.07-33.95-5.83-60.09c-3.6-8.62-1.58-18.88,5.03-24.35C2525.34,1108.99,2569.85,1065.82,2552.41,1063.11z"/>
				<g>
					<path class="st10" d="M2461.23,1122.79c-0.86,4.34-2.79,8.27-5.28,11.9c-2.05,3-5.73,8.3-9.45,9.46
						c-10.7,3.34-1.86-20.51-0.47-24.36c0.92-2.53-3.11-3.62-4.02-1.11c-2.49,6.88-5.96,13.97-4.79,21.49
						c0.59,3.77,2.36,8.09,6.64,8.66c5.03,0.67,9.56-4.36,12.46-7.8c4.17-4.95,7.66-10.74,8.92-17.14
						C2465.77,1121.28,2461.75,1120.16,2461.23,1122.79L2461.23,1122.79z"/>
					<path class="st10" d="M2499.37,1164.87c-8.32,1.59-16.51,3.65-24.94,4.64c-4.31,0.51-9.64,1.38-13.93,0.3
						c-10.83-2.74,4.82-11.32,9.25-13.04c2.72-1.06,1.54-5.49-1.22-4.42c-6.13,2.38-17.26,6.78-16.66,15.23
						c0.33,4.63,4.6,6.18,8.6,6.83c13.11,2.12,27.37-2.68,40.13-5.12C2503.48,1168.73,2502.25,1164.31,2499.37,1164.87
						L2499.37,1164.87z"/>
					<path class="st10" d="M2501.43,1184.66c-8.61,1.76-17.53,4.87-26.36,4.94c-1.33,0.01-2.68-0.02-4.01-0.15
						c-4.74-0.46-4.87-0.11-6.1-4.81c-1.21-4.66-0.49-4.7,3.03-7.23c1.45-1.04,2.99-1.97,4.5-2.92c2.39-1.5,0.19-5.3-2.22-3.79
						c-6.24,3.92-19.02,12.98-8.94,20.4c10.66,7.85,30.27,0.03,41.25-2.22C2505.37,1188.33,2504.2,1184.1,2501.43,1184.66
						L2501.43,1184.66z"/>
					<path class="st10" d="M2502.47,1209.72c-8.69-0.45-17.46-0.55-26.12-1.37c-4.73-0.45-10.2-3.98-5.69-9.03
						c2.11-2.37,4.8-4.2,7.7-5.45c2.46-1.07,0.33-4.66-2.11-3.6c-5.82,2.52-16.82,11.46-10.68,18.55c2.43,2.81,6.68,3.3,10.14,3.65
						c8.87,0.91,17.87,0.95,26.77,1.42C2505.15,1214.04,2505.14,1209.86,2502.47,1209.72L2502.47,1209.72z"/>
				</g>
				<path class="st4" d="M2137.41,1389c-91.57,28.65-181.48,45.67-260.32,47.09l-162.16-192.67l17.78-54.26
					c106.16,28.65,215.06,30.27,316.32,19.45C2068.92,1276.11,2098.91,1337.34,2137.41,1389z"/>
			</g>
		</g>
		<g>
			<g>
				<path class="st8" d="M463.57,447.83v225.12c0,32.51,26.36,58.87,58.87,58.87h296.91c32.55,0,58.91-26.36,58.91-58.87V447.83
					c0-32.51-26.36-58.87-58.91-58.87H522.44C489.93,388.95,463.57,415.32,463.57,447.83z"/>
				<path class="st5" d="M463.57,447.83v18.62h414.7v-18.62c0-32.51-26.36-58.87-58.91-58.87H522.44
					C489.93,388.95,463.57,415.32,463.57,447.83z"/>
				<g>
					<g>
						
							<ellipse transform="matrix(0.1612 -0.9869 0.9869 0.1612 -58.6135 991.2798)" class="st5" cx="553.86" cy="530.12" rx="20.5" ry="20.5"/>
						<path class="st5" d="M588.92,596.48h-70.11v-17.25c0-9.72,7.88-17.6,17.6-17.6h34.91c9.72,0,17.6,7.88,17.6,17.6V596.48z"/>
					</g>
					<g>
						<rect x="518.66" y="634.59" class="st5" width="78.18" height="9.51"/>
						<rect x="518.66" y="653.46" class="st5" width="54.21" height="9.51"/>
						<rect x="518.66" y="672.32" class="st5" width="72.48" height="9.51"/>
					</g>
					<g>
						<rect x="647.59" y="644.22" class="st5" width="208.95" height="9.51"/>
						<rect x="647.32" y="663.08" class="st5" width="117.81" height="9.51"/>
					</g>
					<path class="st5" d="M809.75,604.66H658.98c-6.33,0-11.46-5.13-11.46-11.46v-80.34c0-6.33,5.13-11.46,11.46-11.46h150.77
						c6.33,0,11.46,5.13,11.46,11.46v80.34C821.21,599.53,816.08,604.66,809.75,604.66z"/>
				</g>
				<path class="st6" d="M515.76,443.67c-8.05,0-14.6-6.55-14.6-14.6c0-8.05,6.55-14.6,14.6-14.6c8.05,0,14.6,6.55,14.6,14.6
					C530.36,437.12,523.81,443.67,515.76,443.67z M515.76,416.56c-6.9,0-12.51,5.61-12.51,12.51c0,6.9,5.61,12.51,12.51,12.51
					c6.9,0,12.51-5.61,12.51-12.51C528.27,422.17,522.66,416.56,515.76,416.56z"/>
				<path class="st6" d="M567.9,443.67c-8.05,0-14.6-6.55-14.6-14.6c0-8.05,6.55-14.6,14.6-14.6c8.05,0,14.6,6.55,14.6,14.6
					C582.5,437.12,575.95,443.67,567.9,443.67z M567.9,416.56c-6.9,0-12.51,5.61-12.51,12.51c0,6.9,5.61,12.51,12.51,12.51
					c6.9,0,12.51-5.61,12.51-12.51C580.42,422.17,574.8,416.56,567.9,416.56z"/>
			</g>
			<g>
				<path class="st4" d="M890.79,748.69c-28.74,37.36-69.27,65.69-118.04,87.7c102.29,165.69,314.77,365.69,448.4,397.13
					l275.94-134.82C1232.07,1065.45,1021.64,877.12,890.79,748.69z"/>
				<path class="st2" d="M890.79,748.69c-18.21-17.87-34.88-34.59-49.94-49.56c-22.24-22.11-40.44-41.32-56.81-68.4
					c-17.3-28.6-36.77-59.59-48.74-64.22c-16.94-6.56,3.52,42.82,15.35,72.28c3.21,7.98-7.12,17.65-14.59,23.11
					c-22.66,16.57-34.08,32.5-34.9,47.85c21.19,41.36,45.29,84.05,71.59,126.64C821.52,814.39,862.05,786.06,890.79,748.69z"/>
				<g>
					<path class="st10" d="M788.61,661.52c-3,6.01-3.95,12.88-3.66,19.55c0.21,4.69,0.65,11.63,5.16,14.35
						c4.3,2.6,9.09-0.61,12.02-3.84c4.93-5.43,6.49-12.92,8.65-19.7c0.84-2.64-3.3-3.76-4.14-1.14c-1.33,4.17-2.34,8.53-4.2,12.5
						c-1.84,3.92-8.12,13.16-11.81,5.84c-3.45-6.83-1.56-18.9,1.68-25.4C793.55,661.22,789.85,659.05,788.61,661.52L788.61,661.52z"
						/>
					<path class="st10" d="M731.34,676.81c8.84,9.92,17.11,21.96,28.78,28.81c3.62,2.12,8.39,3.83,11.68,0.24
						c5.87-6.41-0.2-16.94-3.72-22.75c-1.57-2.59-5.65-0.22-4.07,2.38c1.98,3.27,10.24,19.58,1.08,17.37
						c-4.57-1.1-9.06-6.14-12.28-9.27c-6.51-6.3-12.11-13.37-18.12-20.12C732.65,671.21,729.32,674.55,731.34,676.81L731.34,676.81z
						"/>
					<path class="st10" d="M717.35,691.5c7.76,8.95,18.2,26.71,31.88,27.4c12.92,0.65,8.38-14.89,5.79-21.92
						c-1-2.71-5.37-1.54-4.36,1.2c1.14,3.09,2.53,6.31,2.95,9.6c1.15,9.05-7.3,6.25-12.08,3.06c-8.47-5.66-14.39-14.93-20.98-22.53
						C718.64,686.1,715.45,689.31,717.35,691.5L717.35,691.5z"/>
					<path class="st10" d="M701.75,711.84c7.2,4.96,14.26,10.17,21.61,14.91c3.54,2.28,8.29,5.31,12.68,3.64
						c8.2-3.13,4.65-16.27,1.58-21.75c-1.35-2.41-5.06-0.25-3.71,2.17c1.56,2.79,2.72,6.26,2.74,9.49c0.03,3.62-0.39,6.79-5.58,5.8
						c-1.68-0.32-3.5-1.76-4.93-2.63c-7.64-4.72-14.85-10.23-22.24-15.32C701.64,706.56,699.49,710.28,701.75,711.84L701.75,711.84z
						"/>
				</g>
			</g>
		</g>
		<g>
			<g>
				<polygon class="st11" points="2050.37,559.15 2335.29,753.95 2485.44,534.01 2196.93,350.94 				"/>
				<path class="st5" d="M2073.88,553.91c98.56,70.24,190.55,145.84,254.47,162.84c43.84-25.87,92.79-111.85,131.75-186.05
					L2203.4,369.67L2073.88,553.91z"/>
				<polygon class="st12" points="2128.34,493.87 2171.51,436.55 2120.51,402.05 2082.58,455.36 				"/>
				<g>
					
						<rect x="2143.03" y="494.66" transform="matrix(0.569 -0.8224 0.8224 0.569 536.4077 2038.665)" class="st13" width="139.9" height="25.93"/>
					
						<rect x="2158.08" y="535" transform="matrix(0.569 -0.8224 0.8224 0.569 530.0422 2090.3716)" class="st12" width="202.07" height="9.11"/>
					
						<rect x="2190.78" y="572.72" transform="matrix(0.569 -0.8224 0.8224 0.569 500.9533 2110.3105)" class="st12" width="145.63" height="9.11"/>
					
						<rect x="2199.25" y="562.69" transform="matrix(0.569 -0.8224 0.8224 0.569 524.4539 2136.7241)" class="st12" width="202.58" height="10.75"/>
					
						<rect x="2226.56" y="590.24" transform="matrix(0.569 -0.8224 0.8224 0.569 507.6912 2158.1802)" class="st11" width="172.13" height="9.09"/>
					
						<rect x="2265.93" y="640.18" transform="matrix(0.569 -0.8224 0.8224 0.569 464.8892 2176.4321)" class="st11" width="85.42" height="9.11"/>
				</g>
			</g>
			<g>
				<path class="st2" d="M2204.2,788.94c9.7-23.75,19.01-48.33,27.89-73.85c6.36-18.28-0.04-38.51-15.59-50.04
					c-11.75-8.71-25.92-15.95-42.35-21.84c0,0,21.19-73.52,5.84-74.1c-15.35-0.58-43.19,78.86-43.19,78.86
					c-12.62,25.35-27.49,51.16-44.39,76.97C2122.49,753.93,2159.85,775.15,2204.2,788.94z"/>
				<path class="st4" d="M2092.42,724.94c-99.4,151.86-271.18,303.78-497.85,360.94l36.69,88.57l212.96,51.44
					c154.45-83.32,273.48-225.14,359.99-436.95C2159.85,775.15,2122.49,753.93,2092.42,724.94z"/>
				<path class="st10" d="M2191.52,672.49c11.29,10.78,14.94,31.57,9.75,45.98c-0.91,2.53,3.12,3.62,4.02,1.11
					c5.69-15.8,1.49-38.27-10.82-50.03C2192.52,667.68,2189.57,670.63,2191.52,672.49L2191.52,672.49z"/>
			</g>
		</g>
		<g>
			<g>
				<polygon class="st2" points="1595.57,1072.5 1510.14,1142.37 1411.82,1075.63 1423.42,908.07 1584.64,952.58 1585.48,961.55 
					1592.44,1038.05 				"/>
				<path class="st6" d="M1592.44,1038.05c-48.05-13.43-95.4-36.17-128.06-97.99l121.09,21.48L1592.44,1038.05z"/>
				<path class="st2" d="M1650.26,914.66c-0.25,33.33-10.89,60.23-48.55,73.37c-56.65,19.81-126.18-31.29-177.62-79.97l19.44-130.69
					l69.54-50.06l122.35,38.92c-1.38,28.53,3.84,58.77,8.47,87.64C1647.29,875.32,1650.38,896.01,1650.26,914.66z"/>
				<path class="st6" d="M1438.67,842.73c13.16-37.13,34.11-65.57,69.52-77.87c76.09,29.67,134.87,41.02,193.27-20.86
					c0,0-39.63,15.29-99.42-51.45c-51.09-57.03-160.6-11.12-172.42,17.38c0,0-88.29,18.77-36.15,118.88L1438.67,842.73z"/>
				<path class="st2" d="M1459.85,850.1c-22.94-26.07-66.74-38.58-83.43-8.34c-16.69,30.24,14.95,71.61,52.84,70.22
					C1467.15,910.59,1459.85,850.1,1459.85,850.1z"/>
				<path class="st6" d="M1393.47,859.68c14.21-0.93,26.65,6.73,31.7,20.11c0.94,2.49,4.97,1.41,4.02-1.11
					c-5.69-15.06-19.58-24.23-35.73-23.17C1390.81,855.68,1390.79,859.85,1393.47,859.68L1393.47,859.68z"/>
				<circle class="st6" cx="1545.04" cy="849.34" r="8.69"/>
				<circle class="st6" cx="1601.18" cy="848.47" r="8.69"/>
				<path class="st6" d="M1574.9,861.2c4.22,4.42,8.52,8.78,12.67,13.26c3.34,3.61,7.5,6.64,4.25,12.77
					c-2.27,4.28-8.1,5.87-12.26,7.23c-2.54,0.83-1.45,4.86,1.11,4.02c7.26-2.37,17.12-6.57,16.65-15.88
					c-0.19-3.82-2.57-6.5-4.98-9.19c-4.64-5.2-9.66-10.11-14.48-15.15C1575.99,856.31,1573.04,859.26,1574.9,861.2L1574.9,861.2z"/>
				<path class="st5" d="M1545.39,915.04l54.23,3.13C1599.62,918.16,1575.11,970.83,1545.39,915.04z"/>
				<path class="st6" d="M1555.28,824.08c-4.27,1.07-8.73,0.81-13.02,1.97c-3.47,0.94-6.96,1.83-10.51,2.38
					c-2.92,0.45-13.46,2.23-11.96-5.14c0.81-4,6.65-6.61,9.65-7.09c6.89-1.11,13.74-2.15,20.62-3.34c4.14-0.72,12.55,3.25,7.83,9.6
					C1557.23,823.33,1556.32,823.82,1555.28,824.08z"/>
				<path class="st6" d="M1589.45,825.41c4.16,0.83,8.27,0.46,12.46,1.37c3.39,0.73,6.79,1.42,10.19,1.8
					c2.79,0.32,12.91,1.59,10.25-4.89c-1.44-3.51-7.32-5.65-10.2-6c-6.61-0.78-13.15-1.5-19.77-2.36
					c-3.98-0.51-11.12,3.24-5.64,8.72C1587.51,824.81,1588.45,825.21,1589.45,825.41z"/>
				<circle class="st14" cx="1507.58" cy="886.61" r="30.67"/>
				<path class="st14" d="M1650.26,914.66c-1.84,0.38-3.75,0.54-5.71,0.54c-16.94,0-30.66-13.72-30.66-30.66
					c0-16.73,13.35-30.33,29.99-30.66C1647.29,875.32,1650.38,896.01,1650.26,914.66z"/>
			</g>
			<g>
				<path class="st3" d="M1603.44,1069.38c71.77,21.73,120.49,33.61,185.36,72.4c68.52,40.98,116.23,121.44,147.66,194.56
					c40.35,93.89,88,223.41,75.08,287.82l-35.46,177.98h-824.54l50.06-137.65l-90.38-59.79l141.83-390.72l189.1-143.22l77.17,23.64
					L1603.44,1069.38z"/>
				
					<rect x="1800.88" y="1308.13" transform="matrix(0.9381 -0.3464 0.3464 0.9381 -374.8653 711.4477)" class="st6" width="4.17" height="192.69"/>
				<path class="st5" d="M1545.74,1142.37l-26.42-47.97l73.26-56.31c9.06,8.15,33.65,29.28,45.1,41.45
					C1612.54,1107.63,1583.15,1130.2,1545.74,1142.37z"/>
				<g>
					<path class="st15" d="M1376.94,1585.94c-176.95-19.18-230.4-4.88-230.4-4.88l100.4-254.45l196.31-236.38l-65.92-22.94
						l-111.91,37.24c-111.33,37.05-198.9,119.8-238.39,225.06c-45.44,121.15-93.65,272.53-74.96,327.94
						c26.36,78.18,106.73,101.15,382.09,48.72C1318.83,1669.34,1336.49,1610.57,1376.94,1585.94z"/>
					<path class="st2" d="M1407.29,1589.4c-10.53-1.27-20.58-2.41-30.35-3.47c-40.45,24.63-58.11,83.4-42.79,120.32
						c2.78-0.53,5.54-1.05,8.36-1.6c21.84-4.22,44.38-4.28,66.25-0.21c37.14,6.92,93.71,17.58,109.42,21.22
						c23.98,5.56,47.95,5.56,58.44-4.17C1587.11,1711.76,1582.99,1610.61,1407.29,1589.4z"/>
				</g>
				<path class="st5" d="M1519.32,1094.4c-33-19.32-74.42-50.55-107.41-69.87l-38.58,42.76c23.64,30.59,66.05,63.96,101.5,79.95
					L1519.32,1094.4z"/>
				<path class="st10" d="M1539.43,1727.39c-26.77-14.58-53.48-29.26-80.24-43.84c-2.36-1.28-4.47,2.32-2.11,3.6
					c26.76,14.58,53.48,29.26,80.24,43.84C1539.69,1732.28,1541.79,1728.67,1539.43,1727.39L1539.43,1727.39z"/>
				<path class="st10" d="M1566.31,1725.31c-21.78-31.35-56.52-51.15-89.04-69.58c-2.34-1.32-4.44,2.28-2.11,3.6
					c31.87,18.05,66.2,37.36,87.55,68.08C1564.23,1729.61,1567.85,1727.52,1566.31,1725.31L1566.31,1725.31z"/>
				<path class="st10" d="M1580.72,1709.64c-24.6-32.89-56.12-59.48-92.78-78.03c-2.39-1.21-4.5,2.39-2.11,3.6
					c35.98,18.21,67.12,44.24,91.29,76.54C1578.71,1713.87,1582.33,1711.79,1580.72,1709.64L1580.72,1709.64z"/>
				<path class="st16" d="M1231.17,1367.65c21.53,19.93,45.47,42.1,75.77,46.29c22.23,3.07,49.17-3.94,60.18-25.32
					c8.45-16.39,3.35-39.57-11.38-50.76c-17.67-13.43-39.83-2-47.86,16.48c-9.48,21.83,2.09,44.22,20.95,56.44
					c27.56,17.86,62.07,11.99,92.32,5.79c24.42-5,54.48-13.22,64.67-38.87c6.87-17.29,3.29-42.26-17.02-48.37
					c-20.12-6.06-41.67,11.96-43.78,31.76c-2.76,26,19.44,47.35,42.38,54.76c27.14,8.76,62.86,6.33,89.65-3.13
					c21.34-7.54,38.72-24.47,36.89-48.49c-1.49-19.5-18.61-35.15-38.37-27.06c-21.99,9-28.37,35.49-16.48,54.95
					c15.53,25.41,46.6,30.92,74.09,28.81c26.92-2.06,63.18-5.46,81.69-27.86c12.69-15.36,16.32-43.58-3.29-55.28
					c-16.71-9.97-40.33,0.3-48.04,17.14c-10.06,21.96,5.86,47.65,26.08,56.93c27.5,12.62,59.09,0.38,81.45-16.88
					c12.46-9.62,23.32-21.07,34.11-32.47c1.85-1.95-1.1-4.9-2.95-2.95c-16.09,16.99-32.69,34.65-54.07,44.96
					c-21.88,10.55-50.54,12.78-69.37-5.02c-16.3-15.41-20.5-43.14,0.8-56.28c21.61-13.33,45.66,2.66,41.04,27.92
					c-4.36,23.88-27.08,34.95-48.62,39.85c-23.55,5.36-50.8,9.72-74.54,3.51c-21.05-5.51-45.67-25.69-39.85-50.21
					c5.27-22.22,37.4-36.75,49.2-11.42c8.66,18.59-0.97,39.12-17.35,49.41c-18.71,11.76-43.48,13.7-65.03,14.07
					c-23.2,0.39-47.95-4.15-63.83-22.56c-15.41-17.87-16.2-45.74,6.64-57.85c23.66-12.54,41.57,10.54,36.85,33.07
					c-4.71,22.46-26.09,33.62-46.44,39.37c-22.69,6.41-48.1,11.7-71.71,9.91c-22.5-1.7-47.69-13.05-55.52-35.95
					c-7.24-21.19,10.3-54.08,35.97-44.95c19.77,7.04,26.01,35.58,15.33,52.18c-12.82,19.95-40.74,24.19-62.13,18.67
					c-25.91-6.69-46.4-25.88-65.51-43.57C1232.15,1362.88,1229.19,1365.82,1231.17,1367.65L1231.17,1367.65z"/>
				<path class="st17" d="M1376.19,1587.89c-108.37-41.79-226.25-42.28-227.43-42.28h-3.23l99.51-219.86l3.8,1.72l-96.87,214.01
					c19.73,0.4,126.67,4.31,225.71,42.51L1376.19,1587.89z"/>
				<path class="st6" d="M1178.51,1729.07l-1.1-4.02c30.41-8.29,151.4-20.36,156.53-20.87l0.41,4.15
					C1333.1,1708.45,1208.58,1720.87,1178.51,1729.07z"/>
			</g>
		</g>
		<g>
			<path class="st18" d="M1575.63,447.3c0-67.66-60.7-122.51-135.57-122.51c-74.87,0-135.57,54.85-135.57,122.51
				c0,67.66,60.7,122.51,135.57,122.51c10.54,0,20.78-1.12,30.63-3.18c20.28,16.54,48.63,38.33,48.63,38.33l-8.96-52.89
				C1549.49,530.59,1575.63,491.71,1575.63,447.3z"/>
			<g>
				<path class="st19" d="M1400.47,461.51c12.73,11.67,25.47,23.34,38.2,35c2.41,2.21,7.46,2.42,8.99-1.16
					c13.39-31.36,33-58.99,57.4-82.74c5.29-5.15-2.81-13.24-8.09-8.09c-25.04,24.38-45.44,52.87-59.19,85.06
					c3-0.39,5.99-0.77,8.99-1.16c-12.73-11.67-25.47-23.34-38.2-35C1403.15,448.45,1395.03,456.52,1400.47,461.51L1400.47,461.51z"
					/>
			</g>
		</g>
		<g>
			<rect x="1409.82" y="1731.27" class="st6" width="329.54" height="35.41"/>
			<polygon class="st5" points="2029.31,1766.69 1633.42,1766.69 1767.9,1425.2 2163.79,1425.2 			"/>
			<path class="st20" d="M1932.59,1625.07h-64.92l22.11-58.31h64.92L1932.59,1625.07z M1873.32,1621.17h56.57l19.16-50.5h-56.57
				L1873.32,1621.17z"/>
		</g>
		<g>
			<rect x="878.48" y="1765.99" class="st1" width="1305.63" height="78.7"/>
			<rect x="878.48" y="1765.43" class="st6" width="1304.24" height="3.9"/>
		</g>
		<g>
			<path class="st21" d="M653.07,1674.61c-5.83,0-11.67-2.21-16.11-6.62c-4.31-4.28-6.68-9.97-6.68-16.02
				c0-6.05,2.37-11.73,6.68-16.01c8.89-8.82,23.34-8.81,32.22,0l0,0c4.31,4.28,6.68,9.96,6.68,16.01c0,6.05-2.37,11.74-6.68,16.02
				C664.74,1672.4,658.9,1674.61,653.07,1674.61z M653.07,1632.17c-5.11,0-10.23,1.93-14.12,5.8c-3.77,3.74-5.85,8.71-5.85,14.01
				s2.08,10.27,5.85,14.01c7.78,7.74,20.46,7.74,28.24,0c3.77-3.74,5.85-8.72,5.85-14.01s-2.08-10.27-5.85-14.01l0,0
				C663.3,1634.1,658.19,1632.17,653.07,1632.17z"/>
			<path class="st21" d="M1138.04,604.35c-5.84,0-11.67-2.2-16.11-6.62c-4.31-4.28-6.68-9.96-6.68-16.01
				c0-6.05,2.37-11.74,6.68-16.01c8.88-8.82,23.34-8.82,32.22,0l0,0c4.31,4.28,6.68,9.96,6.68,16.01c0,6.05-2.37,11.73-6.68,16.01
				C1149.71,602.15,1143.87,604.35,1138.04,604.35z M1138.04,561.92c-5.11,0-10.23,1.93-14.12,5.8c-3.77,3.74-5.85,8.72-5.85,14.01
				c0,5.29,2.08,10.27,5.85,14.01c7.79,7.73,20.46,7.73,28.24,0c3.77-3.74,5.85-8.72,5.85-14.01c0-5.29-2.08-10.27-5.85-14.01l0,0
				C1148.27,563.85,1143.15,561.92,1138.04,561.92z"/>
			<path class="st21" d="M2430.24,1585.9c-5.83,0-11.67-2.21-16.11-6.62c-4.31-4.28-6.68-9.96-6.68-16.01
				c0-6.05,2.37-11.74,6.68-16.01c8.89-8.82,23.35-8.81,32.22,0c4.31,4.28,6.68,9.96,6.68,16.01c0,6.05-2.37,11.74-6.68,16.01
				C2441.91,1583.69,2436.08,1585.9,2430.24,1585.9z M2430.24,1543.46c-5.11,0-10.23,1.93-14.12,5.8
				c-3.77,3.74-5.85,8.72-5.85,14.01c0,5.29,2.08,10.27,5.85,14.01c7.79,7.74,20.46,7.73,28.25,0c3.77-3.74,5.85-8.72,5.85-14.01
				c0-5.29-2.08-10.27-5.85-14.01C2440.48,1545.4,2435.36,1543.46,2430.24,1543.46z"/>
			<path class="st21" d="M2430.08,924.79h-36.19V888.6h36.19V924.79z M2396.71,921.97h30.55v-30.55h-30.55V921.97z"/>
			<path class="st21" d="M1853.03,646.55l-25.59-25.59l25.59-25.59l25.59,25.59L1853.03,646.55z M1831.42,620.96l21.61,21.6
				l21.61-21.6l-21.61-21.6L1831.42,620.96z"/>
			<path class="st21" d="M624.99,1009.18l-25.59-25.59L624.99,958l25.59,25.59L624.99,1009.18z M603.39,983.59l21.6,21.6l21.6-21.6
				l-21.6-21.6L603.39,983.59z"/>
		</g>
	</g>
</g>
</svg>
